<?xml version="1.0"?>
<svg width="1920" height="1080" xmlns="http://www.w3.org/2000/svg" xmlns:svg="http://www.w3.org/2000/svg">
 <g class="layer">
  <title>Layer 1</title>
  <g data-name="Ebene 2" id="Ebene_2">
   <g id="Vordergrund">
    <path d="m965.76,152.46l0,385l273,0l0,-385l-273,0zm254.78,170l-109.28,0l0,-147.8l109.28,0l0,147.8zm-127.28,-147.8l0,147.8l-109.26,0l0,-147.8l109.26,0zm-109.26,165.8l109.29,0l0,174.81l-109.29,0l0,-174.81zm127.29,174.81l0,-174.81l109.28,0l0,174.81l-109.28,0z" fill="#eff1f2" id="svg_2"/>
    <rect fill="#fff" height="147.81" id="svg_3" width="109.29" x="983.97" y="174.66"/>
    <rect fill="#fff" height="174.81" id="svg_4" width="109.29" x="983.97" y="340.46"/>
    <rect fill="#fff" height="174.81" id="svg_5" width="109.29" x="1111.26" y="340.46"/>
    <rect fill="#fff" height="147.81" id="svg_6" width="109.29" x="1111.26" y="174.66"/>
    <path d="m1262.22,293.44a24.36,24.36 0 0 1 24.36,24.36c0,10 -13.47,32.75 -20.37,43.74a86.46,86.46 0 0 0 82.49,-86.37l-173,0a86.46,86.46 0 0 0 82.49,86.37c-6.9,-11 -20.37,-33.73 -20.37,-43.74a24.36,24.36 0 0 1 24.4,-24.36z" fill="#c1c7cc" id="svg_7"/>
    <path d="m1286.58,317.8a24.36,24.36 0 1 0 -48.71,0c0,10 13.47,32.75 20.37,43.74l0.94,1.49l0,-0.6l6.09,0l0,0.6c0.29,-0.47 0.61,-1 0.94,-1.49c6.9,-10.99 20.37,-33.73 20.37,-43.74z" fill="#fff" id="svg_8"/>
    <polygon fill="#a4abb3" id="svg_9" points="1259.18 362.43 1259.18 363.03 1259.18 902.47 1265.27 902.47 1265.27 363.03 1265.27 362.43 1259.18 362.43"/>
    <path d="m1451.38,867.58c0,40 -225.33,72.4 -503.3,72.4s-503.29,-32.42 -503.29,-72.4s225.33,-72.4 503.29,-72.4s503.3,32.41 503.3,72.4" fill="#d0d4d8" fill-rule="evenodd" id="svg_10"/>
    <polygon fill="#595e62" id="svg_11" points="1255.86 859.12 1343.68 859.12 1350.97 805.22 1248.57 805.22 1255.86 859.12"/>
    <polygon fill="#43464a" id="svg_12" points="1245.88 785.26 1245.88 805.22 1248.57 805.22 1350.97 805.22 1353.66 805.22 1353.66 785.26 1303.76 785.26 1299.77 785.26 1245.88 785.26"/>
    <rect fill="#43464a" height="7.98" id="svg_13" width="75.85" x="1261.84" y="859.12"/>
    <path d="m1255.08,667.07a18.09,18.09 0 0 0 -27.08,24c5.33,6 37.56,24.79 50,31.94l2.72,-2.42c-5.57,-13.25 -20.32,-47.51 -25.64,-53.52z" fill="#43464a" id="svg_14"/>
    <path d="m1329.71,565.05a27.95,27.95 0 1 0 -55.89,0c0,13 19.81,72.46 26.07,91l3.75,0c6.27,-18.54 26.07,-78.05 26.07,-91z" fill="#232628" id="svg_15"/>
    <path d="m1373.15,613.63a18.08,18.08 0 0 0 -25.52,1.54c-5.54,6.26 -21.29,43.12 -26.29,55l-17.58,20.91l0,-35.08l-4,0l0,87.93l-19,-23.36l0,0l-2.76,2.43l0,0l21.77,26.31l0,36l4,0l0,-88.6l22,-26.25c13.15,-7.57 43.73,-25.47 48.9,-31.31a18.07,18.07 0 0 0 -1.52,-25.52z" fill="#a4abb3" id="svg_16"/>
    <rect fill="#232628" height="111.65" id="svg_17" transform="matrix(1 0 0 1 0 0)" width="105.5" x="820.38" y="341.99"/>
    <polygon fill="#232628" fill-rule="evenodd" id="svg_18" points="925.88 482.77 896.75 453.64 925.88 453.64 925.88 482.77"/>
    <path d="m864.27,420.23l0,7.91a7.74,7.74 0 0 0 15.47,0l0,-7.91l-15.47,0z" fill="#56b0ff" fill-rule="evenodd" id="svg_19"/>
    <path d="m904.27,414.43l0,0a22.59,22.59 0 0 1 -9.2,-18.2l0,-10.64a23.07,23.07 0 0 0 -46.13,0l0,10.64a22.62,22.62 0 0 1 -9.2,18.2l0,11.57l64.53,0l0,-11.57z" fill="#0096e8" fill-rule="evenodd" id="svg_20"/>
    <rect fill="#00629a" height="11.61" id="svg_21" transform="matrix(1 0 0 1 0 0)" width="64.54" x="839.74" y="414.43"/>
    <path d="m890.57,362.53a11.93,11.93 0 1 1 -11.93,11.93a11.93,11.93 0 0 1 11.93,-11.93" fill="#fff" fill-rule="evenodd" id="svg_22"/>
    <rect fill="#eff1f2" height="16.56" id="svg_31" transform="translate(13.86 544.78) rotate(-45)" width="6.21" x="661.44" y="247.38"/>
    <rect fill="#eff1f2" height="6.21" id="svg_32" transform="translate(20.04 551.59) rotate(-45)" width="28.03" x="661.83" y="248.49"/>
    <polygon fill="#43464a" id="svg_41" points="982.26 814.95 973.71 841.1 980.15 869.88 994.57 869.88 982.26 814.95"/>
    <polygon fill="#43464a" id="svg_42" points="971.61 767.4 957.19 767.4 967.85 814.96 976.4 788.82 971.61 767.4"/>
    <polygon fill="#43464a" id="svg_43" points="978.37 631.2 873.53 631.2 873.53 631.2 869.45 631.2 840.73 718.94 855.16 718.89 879.33 645.04 975.16 645.04 978.37 631.2"/>
    <polygon fill="#43464a" id="svg_44" points="791.33 869.88 805.74 869.88 839.39 767.08 824.96 767.13 791.33 869.88"/>
    <path d="m802.17,719.08a6,6 0 0 0 -5.95,5.95l0,36.23a6,6 0 0 0 5.95,6l22.79,-0.08l14.43,0l101.15,-0.36a5.93,5.93 0 0 1 -3.21,-5.27l0,-38a5.93,5.93 0 0 1 2.58,-4.9l-84.75,0.3l-14.43,0.05l-38.56,0.08z" fill="#d0d4d8" id="svg_45"/>
    <path d="m1021.39,516.75a20.75,20.75 0 0 0 -20.21,16.06l-22.81,98.39l-3.21,13.8l-7.6,32.8a15.57,15.57 0 0 0 15.16,19.08l164.78,0l42.5,-180.13a21,21 0 0 1 2.26,0.13l0,-0.13l-170.87,0z" fill="#a4abb3" id="svg_46"/>
    <path d="m1033,456.83a34,34 0 0 1 -10.8,1c-0.31,2.78 -0.63,5.71 -0.91,8.62l0,0a57.24,57.24 0 0 0 11.71,-9.62z" fill="#0096e8" id="svg_47"/>
    <path d="m1069.26,408.41c-1.13,-11.34 -14.74,-18.15 -14.74,-18.15c-1.14,-19.28 -25,-12.47 -25,-12.47s-18.14,-9.08 -27.22,-4.55s-2.27,17 -5.67,21.56s-4.54,11.33 -4.54,11.34l0,0s-1.75,15 10.29,21.66a122.34,122.34 0 0 1 -2,-17.65a33.93,33.93 0 0 0 16.68,1.66c13.61,-2.26 26.09,-11.34 26.09,-11.34s0,15.88 1.13,21.55c0.09,0.43 0.2,0.91 0.33,1.4c3.19,-5 8.28,-11.18 12,-7.05c5,5.42 -3.72,17.52 -6.94,21.62c0.35,0.87 0.57,1.39 0.57,1.39l0,0s20.16,-19.63 19.02,-30.97z" fill="#007bc0" id="svg_48"/>
    <path d="m1018.86,487.05l40.14,0l-8.65,-47.67s-0.22,-0.52 -0.57,-1.39c3.22,-4.1 11.9,-16.2 6.94,-21.62c-3.77,-4.13 -8.86,2 -12,7.05c-0.13,-0.49 -0.24,-1 -0.33,-1.4c-1.13,-5.67 -1.13,-21.55 -1.13,-21.55s-12.48,9.08 -26.09,11.34a33.93,33.93 0 0 1 -16.68,-1.66a122.34,122.34 0 0 0 2,17.65c0.43,2.24 1,4.56 1.58,6.89c3.85,14.28 7,21.13 7,21.13a46.8,46.8 0 0 0 11.18,2a34,34 0 0 0 10.8,-1a57.24,57.24 0 0 1 -11.71,9.61l0,0c-1.27,10.65 -2.48,20.62 -2.48,20.62z" fill="#56b0ff" id="svg_49"/>
    <polyline fill="none" fill-rule="evenodd" id="svg_50" points="960.91 766.61 985.13 658.51 999.55 658.51 975.32 766.61"/>
    <path d="m948,584.68l-75.9,-41.21l2.19,31.74l28.44,12.5s41.81,33.69 50.54,34.89c19.26,2.63 20.75,-14.92 20.75,-14.92l-26,-23l-0.02,0z" fill="#0096e8" id="svg_51"/>
    <path d="m825.87,851.76l6.31,24l-76.06,0a25.86,25.86 0 0 1 -20,-9.42l-0.15,-0.19l53.48,-20.92l36.42,6.53z" fill="#a4abb3" fill-rule="evenodd" id="svg_52"/>
    <polygon fill="#eff1f2" id="svg_53" points="968.29 667.61 968.31 667.61 968.29 667.61 968.29 667.61"/>
    <path d="m977.3,531.11c-0.49,-5.87 -1.09,-11.67 -1.07,-17.1c0,5.43 0.58,11.23 1.07,17.1l4.08,66.1l0,0l-4.08,-66.1z" fill="#eff1f2" id="svg_54"/>
    <path d="m988.22,488.75l19.4,-10.84l-19.4,10.84c-7.34,4.43 -10.43,10.75 -11.5,18.09c1.07,-7.34 4.16,-13.66 11.5,-18.09z" fill="#eff1f2" id="svg_55"/>
    <path d="m922,849.47l2.35,30.53l-50.9,0a7,7 0 0 1 -5.79,-11l26,-19.62l28.34,0.09z" fill="#a4abb3" fill-rule="evenodd" id="svg_56"/>
    <path d="m948.32,580.71l-26.7,-69.27a7.14,7.14 0 0 0 -6.56,-4.57l-25.75,-0.32l21,0.26a7.11,7.11 0 0 1 6.56,4.57l26.7,69.27a7.12,7.12 0 0 1 -6.74,9.69l-27.73,-0.34l32.47,0.41a7.13,7.13 0 0 0 6.75,-9.7z" fill="#71767c" id="svg_57"/>
    <path d="m895.07,589.81l0,0z" fill="#71767c" id="svg_58"/>
    <path d="m943.56,580.65l-26.7,-69.27a7.11,7.11 0 0 0 -6.56,-4.57l-21,-0.26l-20.69,-0.27a7.13,7.13 0 0 0 -6.74,9.7l26.7,69.27a7.11,7.11 0 0 0 6.49,4.56l0.07,0l14,0.17l27.72,0.35a7.12,7.12 0 0 0 6.71,-9.68z" fill="#a4abb3" id="svg_59"/>
    <path d="m872.1,543.47l29.63,1l0,0c0.84,6.07 -2.65,16.19 -8.4,18.28l-19,12.45l-2.23,-31.73z" fill="#56b0ff" fill-rule="evenodd" id="svg_60"/>
    <polygon fill="none" id="svg_61" points="976.4 788.82 983.41 767.4 971.61 767.4 976.4 788.82"/>
    <path d="m983.41,767.4l16.33,-49.86l-56.45,0a6,6 0 0 0 -6,6l0,38a6,6 0 0 0 6,5.95l40.12,0l0,-0.09z" fill="#595e62" id="svg_62"/>
    <path d="m1143.52,746.89a35.59,35.59 0 0 0 3.39,-15.2l0,-2.25a11.9,11.9 0 0 0 -11.91,-11.9l-120.85,0l-9.61,29.35l138.98,0z" fill="#595e62" id="svg_63"/>
    <path d="m1014.15,717.54l-9.61,29.35l139,0a35.59,35.59 0 0 0 3.39,-15.2l0,-2.25a11.89,11.89 0 0 0 -4.44,-9.27l5.21,-23.25l-0.18,0l3.48,-14.73l5.3,-23.68l0.28,0l3.18,-13.47l-121.88,0l-23.73,72.5z" fill="none" id="svg_64"/>
    <path d="m1192.25,516.88a21,21 0 0 0 -2.26,-0.13l-26.99,114.45l-3.26,13.8l-3.18,13.47l-5.56,23.72l-3.48,14.73l13.48,0c0.37,0 0.73,0 1.09,0a14,14 0 0 0 12.55,-10.79l33.85,-146a19,19 0 0 0 -16.24,-23.25z" fill="#595e62" id="svg_65"/>
    <path d="m1056,470.53l-35.14,0l-12.28,6.86l-18.37,170.61c29.1,5 64.07,16 94,39.36l16.92,-191.51l-45.13,-25.32z" fill="#eff1f2" id="svg_66"/>
    <path d="m981.38,597.21l-4.08,-66.1c-0.49,-5.87 -1.09,-11.67 -1.07,-17.1a50.57,50.57 0 0 1 0.49,-7.17a32.58,32.58 0 0 1 0.69,-3.46l-29.41,81.3l0,0l24.44,21.62l1.55,1.38l6.65,-6.65l0.71,-3.82l0.03,0z" fill="#d0d4d8" id="svg_67"/>
    <polygon fill="#d0d4d8" id="svg_68" points="997.02 584.68 997.02 584.64 997.01 584.69 997.02 584.68"/>
    <path d="m1008.55,477.39l-0.93,0.52l-19.4,10.84a22.84,22.84 0 0 0 -10.81,14.63a32.58,32.58 0 0 0 -0.69,3.46a50.57,50.57 0 0 0 -0.49,7.17c0,5.43 0.58,11.23 1.07,17.1l4.08,66.1l0,0l-0.71,3.82l-8.26,44.44c5.59,0.59 11.56,1.4 17.8,2.48l6.8,-63.26l0,-0.05l11.53,-107.25l0.01,0z" fill="#e0e2e5" id="svg_69"/>
    <path d="m972.41,645.47c-25.23,-2.68 -42.77,-1.1 -42.77,-1.1l0,0.37c25.14,2.94 47.89,14.73 38.72,74.78l53.64,0c12.88,4.3 36.5,6.45 47.23,-4.29s15,-27.92 15,-27.92c-30,-23.37 -64.92,-34.34 -94,-39.36c-6.23,-1.08 -12.23,-1.89 -17.82,-2.48z" fill="#002742" id="svg_70"/>
    <path d="m850.31,660.56l-60.81,184.66l36.37,6.54c27.19,-56.36 46.45,-80.38 53.49,-139.09l37.64,1.44l9.48,-54.9l-76.17,1.35z" fill="#001d33" id="svg_71"/>
    <path d="m929.63,644.74l-0.6,-0.07l-2.51,14.54l-9.52,54.9l-23.31,135.22l29.17,11.28c26.93,-64.31 40.65,-109.41 45.49,-141.09c9.17,-60.05 -13.58,-71.84 -38.72,-74.78z" fill="#003253" id="svg_72"/>
    <path d="m1085.28,487.23l15.87,8.43s16.09,109.37 8.91,231.45l-58.63,-2.17s1.89,-82.37 1.1,-123.54c-1.36,-71 12.08,-126 12.08,-126l20.67,11.83z" fill="#e0e2e5" fill-rule="evenodd" id="svg_73"/>
    <path d="m1140.57,627.7l-26.11,-115.81c-4.51,-14.93 -13.93,-21.78 -25.59,-21c-18.72,2.79 -20.48,27.3 -19.42,38.12c3.11,31.74 18.46,66.29 22.81,75.55c22.4,-2.34 41.26,2.83 48.31,23.14z" fill="#eff1f2" id="svg_74"/>
    <path d="m1147.68,696.92l-5.21,23.25a11.89,11.89 0 0 1 4.44,9.27l0,2.25a35.59,35.59 0 0 1 -3.39,15.2l-139,0l9.61,-29.35l23.73,-72.5l121.86,0l3.28,-13.84l-135,0l-28.26,86.34l-16.33,49.86l-7,21.42l-8.56,26.18l-18,54.92l14.41,0l9.43,-28.78l8.57,-26.14l15.21,-46.44l125.06,0l23.38,104.31l14.41,0l-23.32,-104.36l1.56,0a20.66,20.66 0 0 0 20.65,-20.65l0,-1l-8.27,0l11.21,-50c-0.36,0 -0.72,0 -1.09,0l-13.38,0.06z" fill="#eff1f2" id="svg_75"/>
    <polygon fill="#56b0ff" id="svg_76" points="1012.39 618.35 988.24 605.44 972.8 611.39 975.69 615.32 985.8 614.06 988.46 616.71 1012.39 618.35"/>
    <rect fill="#43464a" height="46.23" id="svg_77" width="30.81" x="962.6" y="601.94"/>
    <path d="m1076.36,601.25c-22.39,3.33 -46.23,11 -64,17.1l-29.57,-2s4.82,32.85 4.78,32.86c8.81,1.58 30.54,-5.37 30.54,-5.37s123.39,-12.07 123.28,-12.86a40.72,40.72 0 0 0 -2.75,-10.29c-8.81,-20.96 -34.43,-23.59 -62.28,-19.44z" fill="#56b0ff" id="svg_78"/>
    <path d="m982.82,616.32l-26.34,8.77s-0.41,6.45 6.9,14c7,7.29 23.26,9.67 24.22,10.07l-4.78,-32.84z" fill="#0096e8" id="svg_79"/>
    <rect fill="#001d33" id="svg_80" x="139.33" y="266.67"/>
    <rect fill="#001d33" id="svg_81" transform="matrix(1 0 0 1 0 0)" x="165.33" y="287.67"/>
   </g>
  </g>
 </g>
</svg>